# xmcd CD database file
#
# Track frame offsets:
#	150
#	88312
#	139124
#	192906
#
# Disc length: 2816 seconds
#
# Revision: 0
# Processed by: cddbd v1.4PL0 Copyright (c) Steve Scherf et al.
# Submitted via: CDex 1.50
#
DISCID=340afe04
DTITLE=Electro-Magnetic Trans - Personal Orchestra
DYEAR=1900
DGENRE=Jazz
TTITLE0=C
TTITLE1=D
TTITLE2=E
TTITLE3=B
EXTD=
EXTT0=
EXTT1=
EXTT2=
EXTT3=
PLAYORDER=
